<?xml version="1.0" encoding="UTF-8"?>
<svg width="586px" height="155px" viewBox="0 0 586 155" version="1.1" xmlns="http://www.w3.org/2000/svg" xmlns:xlink="http://www.w3.org/1999/xlink">
    <title>191CA641-E156-4C3D-94EA-974C22603310</title>
    <g id="Page-1" stroke="none" stroke-width="1" fill="none" fill-rule="evenodd">
        <g id="Experience---Home" transform="translate(-427.000000, -166.000000)" fill="#FFFFFF" fill-rule="nonzero">
            <path d="M906.584889,267.013641 C909.257502,267.013641 911.827645,267.312321 914.293324,267.910439 C916.809571,268.520823 919.056589,269.514827 921.026204,270.892756 C923.025482,272.291437 924.61642,274.081767 925.789215,276.251424 C926.918448,278.340491 927.503317,280.822866 927.556458,283.685649 L927.560443,284.117918 L927.560443,285.372388 L914.645297,285.372388 L914.571741,284.19617 C914.49058,282.898354 914.225353,281.857698 913.792709,281.068112 C913.364758,280.287091 912.810509,279.68776 912.120327,279.252109 C911.379029,278.784192 910.521432,278.449235 909.540181,278.249096 C908.49985,278.036907 907.353889,277.92987 906.102223,277.92987 C905.316202,277.92987 904.529445,278.012638 903.74062,278.17861 C903.015355,278.331209 902.36558,278.594732 901.78366,278.969946 C901.214901,279.336674 900.752949,279.789305 900.389288,280.33448 C900.076917,280.802764 899.910576,281.434493 899.910576,282.257289 C899.910576,283.005694 900.041579,283.562133 900.275995,283.942839 C900.493977,284.296854 901.032796,284.707144 901.911121,285.118036 C902.779892,285.524458 903.967969,285.941349 905.468028,286.362833 L906.182488,286.557669 L909.25212,287.359518 L913.588378,288.469698 L913.80002,288.513228 L914.255157,288.614006 L914.752914,288.733092 C914.839436,288.754467 914.92774,288.776605 915.017832,288.799507 L915.579858,288.946093 L916.184954,289.111036 L916.8333,289.294359 L917.525075,289.49608 C919.27895,290.01453 921.010736,290.836958 922.719529,291.959226 C924.474045,293.111523 925.984584,294.646137 927.24829,296.552977 C928.567148,298.543037 929.215298,301.045218 929.215298,304.033547 C929.215298,306.46027 928.741757,308.726961 927.793627,310.82161 C926.838989,312.930635 925.419206,314.751421 923.546209,316.273907 C921.69047,317.782364 919.408693,318.947111 916.709254,319.773485 C914.031273,320.593291 910.955241,321 907.481269,321 C904.66283,321 901.92452,320.653429 899.268947,319.960034 C896.568832,319.255008 894.172817,318.143219 892.089217,316.6243 C889.978068,315.085299 888.299312,313.121674 887.061374,310.746216 C885.867367,308.455053 885.271165,305.778247 885.262031,302.729761 L885.264718,302.291736 L885.283448,301.056272 L898.255721,301.056272 L898.255721,302.310741 C898.255721,303.774195 898.512517,304.978464 899.010535,305.935633 C899.519032,306.912943 900.183191,307.692155 901.009797,308.287734 C901.867451,308.905683 902.885567,309.36911 904.072126,309.6758 C905.301646,309.993595 906.575092,310.152683 907.894983,310.152683 C908.797364,310.152683 909.771449,310.076965 910.816702,309.924621 C911.796957,309.78175 912.710326,309.507899 913.561036,309.103034 C914.356653,308.724389 915.010032,308.211318 915.533872,307.556899 C915.9896,306.987571 916.224151,306.242465 916.224151,305.273966 C916.224151,304.269906 915.927544,303.516803 915.328414,302.934204 C914.603141,302.228943 913.627636,301.625889 912.393378,301.132472 C911.221304,300.663915 909.902573,300.24503 908.437691,299.876926 L907.88151,299.74127 C906.117313,299.323676 904.330389,298.85981 902.557035,298.35934 C900.669933,297.887839 898.829399,297.310059 897.0357,296.626019 C895.177548,295.917399 893.507941,294.997195 892.030729,293.865324 C890.508897,292.699264 889.277966,291.240762 888.344051,289.500149 C887.389525,287.721122 886.919429,285.600569 886.919429,283.153147 C886.919429,280.413772 887.512995,278.003023 888.709337,275.942441 C889.879549,273.926864 891.415305,272.242259 893.308552,270.897838 C895.178208,269.570171 897.290116,268.588459 899.637341,267.953122 C901.949842,267.327183 904.266582,267.013641 906.584889,267.013641 Z M641.063689,268.185148 L641.063689,300.036639 C641.063689,301.295358 641.172133,302.530896 641.388904,303.74411 C641.585047,304.841872 641.990759,305.797636 642.608212,306.626857 C643.215433,307.442336 644.075376,308.118302 645.20696,308.654004 C646.327969,309.1847 647.909101,309.463561 649.944476,309.463561 C653.47408,309.463561 655.798781,308.712478 656.988128,307.319522 C658.190553,305.91125 658.846385,303.611813 658.891696,300.397545 L658.894215,300.036639 L658.894215,268.185148 L672.230123,268.185148 L672.230123,300.036639 C672.230123,307.035466 670.237666,312.333304 666.213858,315.833472 C662.241817,319.288609 656.801044,321 649.944476,321 C642.995089,321 637.541218,319.30045 633.635201,315.863188 C629.766133,312.458442 627.811846,307.302858 627.730436,300.483722 L627.727781,300.036639 L627.727781,268.185148 L641.063689,268.185148 Z M691.737427,268.185148 L710.470206,298.278375 L710.470526,268.185148 L723.116911,268.185148 L723.116911,319.897405 L710.338346,319.897405 L691.674012,289.875936 L691.674668,319.897405 L679.028283,319.897405 L679.028283,268.185148 L691.737427,268.185148 Z M758.498089,268.185148 L768.61774,300.119101 L778.866023,268.185148 L792.691087,268.185148 L775.516111,319.897405 L761.492494,319.897405 L744.752328,268.185148 L758.498089,268.185148 Z M743.457836,268.185148 L743.457836,319.897405 L730.121928,319.897405 L730.121928,268.185148 L743.457836,268.185148 Z M509.847487,268.185148 L509.847487,279.790499 L495.091364,279.789998 L495.091698,319.897405 L481.755789,319.897405 L481.755288,279.789998 L467,279.790499 L467,268.185148 L509.847487,268.185148 Z M833.233714,268.185148 L833.233714,279.790499 L807.238554,279.789998 L807.238554,287.82446 L831.096193,287.825127 L831.096193,298.741357 L807.238554,298.740857 L807.238554,308.291554 L833.785332,308.292053 L833.785332,319.897405 L793.902794,319.897405 L793.902794,268.185148 L833.233714,268.185148 Z M866.385706,268.185148 C868.747286,268.185148 870.894136,268.56962 872.818854,269.344056 C874.739036,270.116667 876.396002,271.183033 877.78031,272.541382 C879.166152,273.901236 880.227728,275.480044 880.958932,277.269193 C881.688104,279.05337 882.051933,280.971764 882.051933,283.015323 C882.051933,286.120482 881.390392,288.839958 880.057127,291.152959 C879.16984,292.692259 877.926926,293.985881 876.341523,295.033015 L876.01988,295.239156 L875.873699,295.32619 L876.124233,295.478518 C876.304821,295.592458 876.479616,295.712006 876.64857,295.837182 L876.897611,296.02917 L877.137853,296.229616 C878.127509,297.088554 878.936295,298.105468 879.559885,299.274019 C880.169668,300.416699 880.612415,301.668311 880.888962,303.025114 C881.152351,304.317368 881.332052,305.610461 881.429197,306.923107 L881.498695,308.207918 L881.550744,309.306722 C881.556524,309.435255 881.562304,309.565938 881.568082,309.698769 C881.612941,310.72991 881.691511,311.784378 881.803845,312.862163 C881.912533,313.904963 882.08578,314.889733 882.32306,315.81674 C882.513892,316.562288 882.782449,317.191984 883.125009,317.711445 L883.256931,317.901087 L884.721749,319.897405 L870.55533,319.897405 L870.246801,319.090953 C869.646952,317.523028 869.266134,315.701047 869.098291,313.624643 L869.063336,313.140956 C868.927389,311.012356 868.723646,308.976116 868.452831,307.036356 C868.120276,304.709821 867.440734,303.071878 866.463478,302.09519 C865.578659,301.210886 864.035059,300.713425 861.787279,300.673505 L861.490093,300.670899 L851.919472,300.670231 L851.919784,319.897405 L838.583876,319.897405 L838.583876,268.185148 L866.385706,268.185148 Z M972.448382,268.185148 L972.448382,279.790499 L946.452728,279.789998 L946.452728,287.82446 L970.310861,287.825127 L970.310861,298.741357 L946.452728,298.740857 L946.452728,308.291554 L973,308.292053 L973,319.897405 L933.117461,319.897405 L933.117461,268.185148 L972.448382,268.185148 Z M603.415741,268.185148 L603.415741,279.790499 L577.419898,279.789998 L577.419898,287.82446 L601.27822,287.825127 L601.27822,298.741357 L577.419898,298.740857 L577.419898,308.291554 L603.967359,308.292053 L603.967359,319.897405 L564.08482,319.897405 L564.08482,268.185148 L603.415741,268.185148 Z M526.327084,268.185148 L526.326585,287.06676 L543.743733,287.06676 L543.743896,268.185148 L557.079804,268.185148 L557.079804,319.897405 L543.743896,319.897405 L543.743733,298.672279 L526.326585,298.672279 L526.327084,319.897405 L512.991176,319.897405 L512.991176,268.185148 L526.327084,268.185148 Z M851.919472,279.100876 L851.919472,290.442957 L862.524378,290.443791 C864.724578,290.443791 866.293574,289.979174 867.275604,289.106766 C868.213311,288.273732 868.716025,286.822292 868.716025,284.669216 C868.716025,282.613445 868.219125,281.224773 867.285444,280.412597 C866.349407,279.598372 864.8775,279.145737 862.835031,279.104475 L862.524378,279.101377 L851.919472,279.100876 Z M969.674986,166 C974.892622,166 979.900621,166.580177 984.698983,167.74053 C989.497344,168.900883 993.759967,170.780654 997.48685,173.379845 C1001.21373,175.979036 1004.17195,179.297646 1006.36149,183.335674 C1008.47284,187.229488 1009.56621,191.921724 1009.64162,197.412385 L1009.64581,198.025744 L988.402572,198.025744 C988.216228,195.05524 987.587317,192.595291 986.515838,190.645898 C985.444359,188.696505 984.023485,187.164839 982.253216,186.0509 C980.482946,184.936961 978.456454,184.147921 976.173738,183.68378 C973.891022,183.219639 971.398669,182.987568 968.696679,182.987568 C966.926409,182.987568 965.15614,183.173225 963.385871,183.544538 C961.615601,183.915851 960.008383,184.565649 958.564216,185.493931 C957.120049,186.422213 955.932105,187.582566 955.000384,188.97499 C954.068663,190.367414 953.602803,192.13115 953.602803,194.2662 C953.602803,196.215593 953.975491,197.793673 954.720868,199.00044 C955.466244,200.207207 956.933704,201.321146 959.123248,202.342257 C961.312792,203.363368 964.340884,204.384478 968.207525,205.405589 C972.074167,206.4267 977.128752,207.726295 983.37128,209.304375 C985.234722,209.675688 987.820247,210.348693 991.127856,211.323389 C994.435464,212.298086 997.71978,213.852959 1000.9808,215.988009 C1004.24183,218.123058 1007.06028,220.977527 1009.43617,224.551414 C1011.81206,228.125301 1013,232.697092 1013,238.266787 C1013,242.815371 1012.11487,247.039056 1010.3446,250.937842 C1008.57433,254.836628 1005.94222,258.201652 1002.44826,261.032913 C998.95431,263.864175 994.621808,266.068845 989.450758,267.646926 C987.152223,268.348383 984.692609,268.893942 982.071915,269.283601 L982.071578,258.588479 L938.175957,258.589101 C935.867292,256.303828 933.928497,253.66058 932.35957,250.659357 C930.110589,246.357248 928.990751,241.276309 929.000058,235.41654 L929.005375,234.785728 L950.248608,234.785728 C950.248608,238.127544 950.854227,240.958806 952.065464,243.279512 C953.276701,245.600218 954.883919,247.47999 956.887118,248.918828 C958.890318,250.357665 961.242913,251.42519 963.944903,252.121402 C966.646893,252.817614 969.442055,253.16572 972.33039,253.16572 C974.287003,253.16572 976.383375,253.00327 978.619505,252.678371 C980.855634,252.353473 982.952006,251.726882 984.90862,250.7986 C986.865233,249.870317 988.495745,248.593929 989.800154,246.969435 C991.104563,245.34494 991.756767,243.279512 991.756767,240.773149 C991.756767,238.08113 990.894925,235.899667 989.171242,234.228758 C987.447559,232.55785 985.188136,231.165426 982.392974,230.051487 C979.597811,228.937548 976.429961,227.962852 972.889422,227.127398 C969.348883,226.291944 965.761758,225.363661 962.128048,224.34255 C958.401165,223.414268 954.767454,222.277122 951.226915,220.931113 C947.686376,219.585103 944.518526,217.844573 941.723363,215.709524 C938.928201,213.574474 936.668778,210.905662 934.945095,207.703088 C933.221412,204.500514 932.35957,200.624934 932.35957,196.076351 C932.35957,190.970797 933.454342,186.538249 935.643886,182.778705 C937.833429,179.019161 940.698471,175.886208 944.239009,173.379845 C947.779548,170.873483 951.785947,169.016918 956.258207,167.810151 C960.730467,166.603384 965.202726,166 969.674986,166 Z M783,166 C790.724596,166 797.611586,167.34601 803.660969,170.038029 C809.710351,172.730048 814.82906,176.443177 819.017094,181.177418 C823.205128,185.911658 826.415954,191.458146 828.649573,197.81688 C830.883191,204.175615 832,211.068112 832,218.494371 C832,225.734974 830.883191,232.488229 828.649573,238.754135 C826.415954,245.020041 823.205128,250.473701 819.017094,255.115113 C817.909303,256.342828 816.736395,257.500723 815.49837,258.588798 L771.846344,258.588479 L768.745985,268.246383 C768.694208,268.232545 768.642479,268.218626 768.590797,268.204626 L765.544465,258.588479 L750.5067,258.588961 C749.265351,257.50084 748.090753,256.34289 746.982906,255.115113 C742.794872,250.473701 739.584046,245.020041 737.350427,238.754135 C735.116809,232.488229 734,225.734974 734,218.494371 C734,211.068112 735.116809,204.175615 737.350427,197.81688 C739.584046,191.458146 742.794872,185.911658 746.982906,181.177418 C751.17094,176.443177 756.312915,172.730048 762.408832,170.038029 C768.504748,167.34601 775.368471,166 783,166 Z M486.895415,168.00027 L520.843,258.588 L498.48,258.588 L493.84384,244.964445 L456.739255,244.964445 L448.95702,267.013641 L427,267.013641 L464.52149,168.00027 L486.895415,168.00027 Z M879.674986,166 C884.892622,166 889.900621,166.580177 894.698983,167.74053 C899.497344,168.900883 903.759967,170.780654 907.48685,173.379845 C911.213733,175.979036 914.171946,179.297646 916.36149,183.335674 C918.472835,187.229488 919.566211,191.921724 919.641616,197.412385 L919.645805,198.025744 L898.402572,198.025744 C898.216228,195.05524 897.587317,192.595291 896.515838,190.645898 C895.444359,188.696505 894.023485,187.164839 892.253216,186.0509 C890.482946,184.936961 888.456454,184.147921 886.173738,183.68378 C883.891022,183.219639 881.398669,182.987568 878.696679,182.987568 C876.926409,182.987568 875.15614,183.173225 873.385871,183.544538 C871.615601,183.915851 870.008383,184.565649 868.564216,185.493931 C867.120049,186.422213 865.932105,187.582566 865.000384,188.97499 C864.068663,190.367414 863.602803,192.13115 863.602803,194.2662 C863.602803,196.215593 863.975491,197.793673 864.720868,199.00044 C865.466244,200.207207 866.933704,201.321146 869.123248,202.342257 C871.312792,203.363368 874.340884,204.384478 878.207525,205.405589 C882.074167,206.4267 887.128752,207.726295 893.37128,209.304375 C895.234722,209.675688 897.820247,210.348693 901.127856,211.323389 C904.435464,212.298086 907.71978,213.852959 910.980802,215.988009 C914.241825,218.123058 917.06028,220.977527 919.436168,224.551414 C921.812056,228.125301 923,232.697092 923,238.266787 C923,242.815371 922.114865,247.039056 920.344596,250.937842 C919.109529,253.657916 917.454963,256.118183 915.3809,258.318643 C912.529948,257.715521 909.594091,257.416972 906.584889,257.416972 C903.409187,257.416972 900.247072,257.844926 897.121689,258.690892 C893.695364,259.618315 890.546347,261.082123 887.734729,263.078691 C886.787929,263.751025 885.894659,264.479609 885.057425,265.262357 L884.561828,265.738489 L884.154648,265.346509 C881.928153,263.253542 879.324343,261.614782 876.412799,260.443283 C873.483279,259.264552 870.331304,258.661599 867.010351,258.594742 L866.385706,258.588479 L848.175957,258.589101 C845.867292,256.303828 843.928497,253.66058 842.35957,250.659357 C840.110589,246.357248 838.990751,241.276309 839.000058,235.41654 L839.005375,234.785728 L860.248608,234.785728 C860.248608,238.127544 860.854227,240.958806 862.065464,243.279512 C863.276701,245.600218 864.883919,247.47999 866.887118,248.918828 C868.890318,250.357665 871.242913,251.42519 873.944903,252.121402 C876.646893,252.817614 879.442055,253.16572 882.33039,253.16572 C884.287003,253.16572 886.383375,253.00327 888.619505,252.678371 C890.855634,252.353473 892.952006,251.726882 894.90862,250.7986 C896.865233,249.870317 898.495745,248.593929 899.800154,246.969435 C901.104563,245.34494 901.756767,243.279512 901.756767,240.773149 C901.756767,238.08113 900.894925,235.899667 899.171242,234.228758 C897.447559,232.55785 895.188136,231.165426 892.392974,230.051487 C889.597811,228.937548 886.429961,227.962852 882.889422,227.127398 C879.348883,226.291944 875.761758,225.363661 872.128048,224.34255 C868.401165,223.414268 864.767454,222.277122 861.226915,220.931113 C857.686376,219.585103 854.518526,217.844573 851.723363,215.709524 C848.928201,213.574474 846.668778,210.905662 844.945095,207.703088 C843.221412,204.500514 842.35957,200.624934 842.35957,196.076351 C842.35957,190.970797 843.454342,186.538249 845.643886,182.778705 C847.833429,179.019161 850.698471,175.886208 854.239009,173.379845 C857.779548,170.873483 861.785947,169.016918 866.258207,167.810151 C870.730467,166.603384 875.202726,166 879.674986,166 Z M690.837398,168.00027 C695.312195,168.00027 699.344173,168.716753 702.933333,170.14972 C706.522493,171.582687 709.598916,173.547238 712.162602,176.043373 C714.726287,178.539508 716.684011,181.428554 718.035772,184.71051 C719.387534,187.992466 720.063415,191.528657 720.063415,195.319085 C720.063415,201.143401 718.828184,206.181897 716.357724,210.434572 C713.964465,214.554351 710.105758,217.719752 704.781604,219.930774 L704.261789,220.141765 L704.261789,220.419113 C706.965312,221.158709 709.20271,222.291215 710.973984,223.816631 C712.745257,225.342047 714.190244,227.144811 715.308943,229.224924 C716.427642,231.305037 717.24336,233.593161 717.756098,236.089297 C718.268835,238.585432 718.618428,241.081567 718.804878,243.577703 C718.898103,245.149344 718.991328,246.998333 719.084553,249.12467 C719.177778,251.251008 719.340921,253.42357 719.573984,255.642357 C719.679691,256.648706 719.814165,257.631281 719.977405,258.590084 L700.84733,258.588479 L700.84701,264.633519 L699.823823,262.991448 C699.315482,260.80685 698.976918,258.403377 698.80813,255.781031 C698.528455,251.435907 698.108943,247.275681 697.549593,243.300354 C696.803794,238.123185 695.21897,234.332757 692.795122,231.929071 C690.444724,229.598224 686.647926,228.397485 681.40473,228.326853 L680.908943,228.323542 L658.954472,228.323542 L658.954,258.588 L637,258.588 L637,168.00027 L690.837398,168.00027 Z M577.087218,166 C582.58797,166 587.785714,166.78904 592.680451,168.36712 C597.575188,169.9452 601.957143,172.242699 605.826316,175.259617 C609.695489,178.276535 612.888722,182.012872 615.406015,186.468627 C617.822617,190.746153 619.379982,195.622532 620.078111,201.097764 L620.160902,201.785287 L598.903759,201.785287 C598.530827,199.278925 597.691729,196.981426 596.386466,194.89279 C595.081203,192.804155 593.449624,190.970797 591.491729,189.392717 C589.533835,187.814637 587.319549,186.584663 584.848872,185.702794 C582.378195,184.820926 579.790977,184.379992 577.087218,184.379992 C572.145865,184.379992 567.950376,185.331482 564.500752,187.23446 C561.051128,189.137439 558.254135,191.690216 556.109774,194.89279 C553.965414,198.095365 552.403759,201.738873 551.424812,205.823316 C550.445865,209.907759 549.956391,214.131444 549.956391,218.494371 C549.956391,222.671642 550.445865,226.732878 551.424812,230.678078 C552.403759,234.623278 553.965414,238.173959 556.109774,241.330119 C558.254135,244.486279 561.051128,247.015849 564.500752,248.918828 C567.950376,250.821807 572.145865,251.773296 577.087218,251.773296 C583.8,251.773296 589.044361,249.731075 592.820301,245.646632 C596.481818,241.68596 598.762561,236.503263 599.66253,230.098541 L599.742857,229.494518 L621,229.494518 C620.440602,235.71401 618.995489,241.330119 616.664662,246.342844 C614.456652,251.091435 611.579311,255.173599 608.032637,258.589338 L544.535676,258.588606 C543.292266,257.500588 542.115713,256.342756 541.006015,255.115113 C536.810526,250.473701 533.593985,245.020041 531.356391,238.754135 C529.118797,232.488229 528,225.734974 528,218.494371 C528,211.068112 529.118797,204.175615 531.356391,197.81688 C533.593985,191.458146 536.810526,185.911658 541.006015,181.177418 C545.201504,176.443177 550.352632,172.730048 556.459398,170.038029 C562.566165,167.34601 569.442105,166 577.087218,166 Z M781.5,185.002566 C776.491409,185.002566 772.238832,185.94863 768.742268,187.840759 C765.245704,189.732888 762.410653,192.27111 760.237113,195.455424 C758.063574,198.639738 756.48067,202.262473 755.488402,206.323627 C754.496134,210.384781 754,214.584384 754,218.922436 C754,223.075889 754.496134,227.113969 755.488402,231.036675 C756.48067,234.959381 758.063574,238.489816 760.237113,241.627981 C762.410653,244.766146 765.245704,247.281293 768.742268,249.173422 C772.238832,251.06555 776.491409,252.011615 781.5,252.011615 C786.508591,252.011615 790.761168,251.06555 794.257732,249.173422 C797.754296,247.281293 800.589347,244.766146 802.762887,241.627981 C804.936426,238.489816 806.51933,234.959381 807.511598,231.036675 C808.503866,227.113969 809,223.075889 809,218.922436 C809,214.584384 808.503866,210.384781 807.511598,206.323627 C806.51933,202.262473 804.936426,198.639738 802.762887,195.455424 C800.589347,192.27111 797.754296,189.732888 794.257732,187.840759 C790.761168,185.94863 786.508591,185.002566 781.5,185.002566 Z M476.351351,194.003782 L476.07027,194.003782 L463,231.008779 L489,231.008779 L476.351351,194.003782 Z M681.957143,185.002566 L658,185.002566 L658,213.006348 L681.957143,213.006348 C686.971429,213.006348 690.732143,211.891769 693.239286,209.662612 C695.746429,207.433456 697,203.811076 697,198.795473 C697,193.965634 695.746429,190.459356 693.239286,188.27664 C690.732143,186.093924 686.971429,185.002566 681.957143,185.002566 Z" id="Across-the-universe"></path>
        </g>
    </g>
</svg>